# xmcd
#
# Track frame offsets: 
#        182
#        9025
#        20215
#        29520
#        39410
#        53355
#        64982
#        75787
#        87565
#        98970
#        109322
#        118782
#        131605
#        142355
#        153435
#        163702
#        173842
#        183297
#        195885
#        207435
#        216872
#        225575
#
# Disc length: 3127 seconds
#
# Revision: 7
# Processed by: cddbd v1.5.2PL0 Copyright (c) Steve Scherf et al.
# Submitted via: ExactAudioCopyFreeDBPlugin 1.0
#
DISCID=290c3516
DTITLE=Various Artist - Take it Off!:  Striptease Classics
DYEAR=1997
DGENRE=Burlesque
TTITLE0=David Rose and His Orchestra - The Stripper
TTITLE1=Sonny Lester and His Orchestra - For Strippers Only
TTITLE2=Sonny Lester and His Orchestra - Shivas Regal (Theme for "Gypsy"
TTITLE2=)
TTITLE3=Sonny Lester and His Orchestra - A Pretty Girl is Like a Melody
TTITLE4=Sonny Lester and His Orchestra - Lament
TTITLE5=Sonny Lester and His Orchestra - Blues to Strip By
TTITLE6=Sonny Lester and His Orchestra - Walkin' and Strippin'
TTITLE7=Sonny Lester and His Orchestra - Bumps and Grinds
TTITLE8=Sonny Lester and His Orchestra - Lonely Little G-String
TTITLE9=Sonny Lester and His Orchestra - Big Millie from Philly
TTITLE10=Sonny Lester and His Orchestra - The Late Late Show
TTITLE11=Sonny Lester and His Orchestra - Perfume and Pink Chiffon
TTITLE12=Sonny Lester and His Orchestra - Swingin' Shepherd Blues
TTITLE13=Sonny Lester and His Orchestra - Lullaby of Birdland
TTITLE14=Sonny Lester and His Orchestra - More Bumps and Grinds
TTITLE15=Sonny Lester and His Orchestra - Strip Poker
TTITLE16=Sonny Lester and His Orchestra - Stripper's Holiday
TTITLE17=Sonny Lester and His Orchestra - A Woman
TTITLE18=Sonny Lester and His Orchestra - Play the Blues for Masie
TTITLE19=Sonny Lester and His Orchestra - How Mable Get Sable Cha Cha Ch
TTITLE19=a
TTITLE20=Genteels - Take it Off
TTITLE21=Bobby Summers - Pad
EXTD=LABEL =Rhino Entertainment Company\nID =R272724\nUPC =08122-72
EXTD=724-25\nCOPYRIGHT =1997\n*****\nDISC: 1\nUPC: 081227272425\nLABE
EXTD=L: Rhino\nENSORECORD: 123884\nYEAR: 1997\n
EXTT0=\nYEAR: 1962
EXTT1=\nYEAR: 1962
EXTT2=\nYEAR: 1962
EXTT3=\nYEAR: 1962
EXTT4=\nYEAR: 1962
EXTT5=\nYEAR: 1962
EXTT6=\nYEAR: 1962
EXTT7=\nYEAR: 1962
EXTT8=\nYEAR: 1962
EXTT9=\nYEAR: 1963
EXTT10=\nYEAR: 1963
EXTT11=\nYEAR: 1963
EXTT12=\nYEAR: 1963
EXTT13=\nYEAR: 1963
EXTT14=\nYEAR: 1963
EXTT15=\nYEAR: 1963
EXTT16=\nYEAR: 1963
EXTT17=\nYEAR: 1963
EXTT18=\nYEAR: 1962
EXTT19=\nYEAR: 1963
EXTT20=\nYEAR: 1962
EXTT21=\nYEAR: 1959
PLAYORDER=
